<?xml version="1.0" standalone="no"?>
<!DOCTYPE svg PUBLIC "-//W3C//DTD SVG 20010904//EN"
 "http://www.w3.org/TR/2001/REC-SVG-20010904/DTD/svg10.dtd">
<svg version="1.0" xmlns="http://www.w3.org/2000/svg"
 width="1158.000000pt" height="900.000000pt" viewBox="0 0 1158.000000 900.000000"
 preserveAspectRatio="xMidYMid meet">

<g transform="translate(0.000000,900.000000) scale(0.100000,-0.100000)"
fill="#000000" stroke="none">
<path d="M3380 8994 c-467 -41 -770 -108 -1140 -255 -133 -52 -424 -200 -548
-278 -711 -448 -1233 -1105 -1499 -1886 -183 -538 -235 -1106 -152 -1680 191
-1327 1128 -2446 2404 -2870 355 -118 652 -170 1035 -181 749 -22 1464 183
2084 598 735 492 1273 1259 1480 2111 110 449 134 924 70 1367 -82 569 -302
1120 -634 1583 -527 736 -1304 1243 -2182 1422 -214 44 -416 66 -653 69 -121
2 -240 2 -265 0z"/>
<path d="M10810 1114 l0 -246 -51 46 c-149 134 -417 109 -579 -53 -93 -92
-140 -215 -140 -363 0 -132 43 -246 128 -339 100 -109 218 -155 377 -147 104
6 162 27 224 83 l41 37 0 -51 0 -51 105 0 105 0 0 665 0 665 -105 0 -105 0 0
-246z m-134 -332 c103 -53 160 -165 152 -300 -10 -167 -121 -281 -274 -282
-167 0 -282 109 -292 281 -9 158 64 276 198 320 46 15 171 4 216 -19z"/>
<path d="M4650 1125 l0 -145 -95 0 -95 0 0 -95 0 -95 95 0 95 0 0 -260 c0
-289 7 -338 54 -408 81 -117 293 -148 479 -70 26 11 47 23 47 26 0 3 -12 43
-27 89 -21 64 -31 83 -43 79 -8 -2 -33 -12 -55 -20 -22 -8 -70 -15 -107 -16
-57 0 -71 4 -96 25 -44 37 -52 92 -52 340 l0 215 170 0 170 0 0 95 0 95 -167
2 -168 3 -3 143 -3 142 -99 0 -100 0 0 -145z"/>
<path d="M945 983 c-53 -19 -117 -63 -141 -97 -13 -19 -14 -16 -14 37 l0 57
-105 0 -105 0 0 -475 0 -475 105 0 105 0 0 303 c0 298 0 303 24 354 33 69 86
105 167 111 84 6 125 -4 169 -44 66 -60 70 -86 70 -426 l0 -298 104 0 105 0 3
303 c3 302 3 303 29 352 15 30 42 62 68 80 36 25 53 30 114 33 121 5 192 -47
216 -159 6 -29 11 -168 11 -329 l0 -280 116 0 115 0 -3 348 c-3 333 -4 349
-26 403 -32 80 -90 142 -170 181 -63 31 -72 33 -177 33 -139 -1 -199 -22 -285
-101 l-58 -55 -47 50 c-70 75 -135 103 -248 108 -71 3 -104 0 -142 -14z"/>
<path d="M2643 985 c-216 -58 -353 -247 -353 -483 0 -136 43 -250 128 -343
100 -109 218 -155 377 -147 104 6 162 27 224 83 l41 37 0 -51 0 -51 105 0 105
0 0 475 0 475 -105 0 -105 0 0 -57 0 -57 -20 21 c-91 98 -250 137 -397 98z
m273 -203 c55 -28 119 -102 138 -159 9 -26 16 -80 16 -122 0 -182 -127 -309
-297 -299 -110 6 -190 57 -241 153 -24 45 -27 61 -27 150 0 86 3 106 24 145
40 77 97 127 171 151 46 15 171 4 216 -19z"/>
<path d="M3753 985 c-160 -44 -247 -145 -247 -290 0 -82 23 -134 80 -184 62
-55 141 -81 296 -101 195 -24 265 -85 185 -165 -41 -41 -90 -55 -192 -55 -94
0 -165 17 -253 61 -35 17 -65 29 -66 27 -22 -30 -86 -140 -86 -147 0 -17 86
-62 168 -88 103 -34 285 -43 385 -19 127 30 205 82 252 168 39 71 41 168 6
241 -41 85 -147 146 -289 167 -37 6 -100 15 -140 21 -52 8 -81 18 -102 36 -50
42 -34 100 37 134 63 31 207 23 308 -16 114 -44 105 -46 148 39 20 42 37 81
37 87 0 17 -120 67 -202 83 -95 20 -255 20 -325 1z"/>
<path d="M5694 981 c-147 -42 -264 -162 -310 -316 -27 -89 -24 -250 5 -335 71
-206 238 -320 467 -320 100 0 216 29 297 73 86 47 88 52 37 128 -24 35 -44 66
-46 67 -1 2 -41 -16 -89 -39 -77 -39 -95 -43 -173 -47 -107 -5 -179 18 -235
76 -36 37 -82 133 -70 146 4 3 164 6 356 6 l350 0 -6 108 c-6 110 -24 187 -59
256 -27 52 -100 130 -153 161 -95 55 -252 70 -371 36z m278 -196 c46 -33 94
-110 100 -160 l3 -30 -239 -3 c-132 -1 -243 1 -247 5 -12 14 19 97 52 137 18
21 55 49 83 63 43 20 63 23 128 21 66 -3 82 -7 120 -33z"/>
<path d="M6879 991 c-45 -14 -73 -32 -121 -79 l-48 -46 0 57 0 57 -100 0 -100
0 0 -475 0 -475 99 0 99 0 4 308 c5 325 8 346 56 411 38 51 81 65 188 58 l91
-6 26 89 c15 49 27 94 27 99 0 13 -181 14 -221 2z"/>
<path d="M7536 984 c-86 -21 -168 -69 -231 -135 -66 -69 -101 -140 -123 -251
-13 -69 -14 -93 -3 -167 38 -263 227 -421 506 -421 126 0 238 32 312 90 l21
17 -42 72 c-59 99 -57 97 -104 66 -91 -60 -237 -74 -327 -31 -107 50 -159 141
-159 276 -1 108 25 171 96 235 98 88 227 98 365 30 41 -20 76 -35 77 -33 24
29 86 153 82 163 -9 24 -108 74 -178 90 -82 18 -213 18 -292 -1z"/>
<path d="M8473 985 c-216 -59 -353 -245 -353 -480 0 -141 40 -250 128 -346
100 -109 218 -155 377 -147 104 6 162 27 224 83 l41 37 0 -51 0 -51 105 0 105
0 0 475 0 475 -105 0 -105 0 0 -57 0 -57 -37 35 c-21 20 -50 43 -64 51 -74 46
-214 60 -316 33z m282 -202 c50 -26 96 -74 126 -133 21 -39 24 -59 24 -145 0
-89 -3 -106 -27 -151 -51 -97 -141 -153 -244 -154 -167 0 -282 109 -292 281
-9 158 64 276 198 320 45 15 171 4 215 -18z"/>
<path d="M9731 983 c-24 -9 -66 -37 -92 -62 l-49 -47 0 53 0 53 -105 0 -105 0
0 -475 0 -475 104 0 105 0 3 317 c3 310 4 319 26 366 17 33 37 55 69 74 42 24
50 26 139 20 l94 -5 28 91 c19 63 25 94 18 99 -20 14 -189 7 -235 -9z"/>
</g>
</svg>
